<?xml version="1.0" encoding="utf-8"?>
<!-- Uploaded to: SVG Repo, www.svgrepo.com, Generator: SVG Repo Mixer Tools -->
<!DOCTYPE svg PUBLIC "-//W3C//DTD SVG 1.1//EN" "http://www.w3.org/Graphics/SVG/1.1/DTD/svg11.dtd">
<svg fill="#000000" width="800px" height="800px" viewBox="0 0 1000 1000" version="1.1" xmlns="http://www.w3.org/2000/svg" xmlns:xlink="http://www.w3.org/1999/xlink"  enable-background="new 0 0 1000 1000" xml:space="preserve">

<g>
<g transform="translate(0.000000,511.000000) scale(0.100000,-0.100000)">
<path d="M4800,4981c-543.8-122.5-985.5-548.9-1156.6-1110.6c-74.1-242.6-79.2-620.4-12.8-868.1c148.1-548.9,612.8-1011.1,1143.8-1136.2c520.9-122.5,1034,30.6,1424.7,421.3c324.2,321.7,467.2,666.4,467.2,1136.2c2.6,684.2-416.1,1286.8-1046.8,1506.4C5384.7,5011.7,5029.8,5034.7,4800,4981z"/>
<path d="M3158.3,2029.6c-426.4-43.4-852.8-283.4-1115.7-623c-132.8-171.1-191.5-280.8-278.3-503l-71.5-186.4l-7.7-2489.4c-7.7-2803.4-20.4-2617,188.9-2823.8c158.3-158.3,283.4-188.9,794-188.9h416.2v1761.7v1761.7h76.6h76.6v-1761.7v-1761.7h1736.2h1736.2v1761.7v1761.7h89.4h89.4v-1764.2V-4790l480,10.2c454.5,7.7,485.1,10.2,605.1,74c143,71.5,278.3,232.4,319.2,375.3c15.3,61.3,25.5,921.7,25.5,2497c0,2310.6-2.5,2410.2-51.1,2599.2c-125.1,487.7-446.8,888.5-880.8,1100.4c-227.2,109.8-400.9,155.7-694.5,178.7l-237.4,17.9v-939.6c0-1049.4-15.3-1177-158.3-1465.5c-155.7-306.4-480-569.4-834.9-674.1c-196.6-58.7-520.9-53.6-720,10.2c-423.8,132.8-725.1,416.2-886,832.3L3786.4,2.3l-7.7,1028.9l-7.7,1026.4l-209.4-2.6C3446.8,2052.5,3265.5,2042.3,3158.3,2029.6z M5226.4-1705.8c143-74,171.1-260.4,56.2-375.3c-104.7-102.1-232.4-102.1-337,0c-117.5,120-97,293.6,48.5,370.2C5080.8-1662.4,5137-1659.8,5226.4-1705.8z M5300.4-2653c130.2-150.6,15.3-395.7-186.3-395.7c-189,0-309,224.7-201.7,377.9C4999.1-2545.8,5198.3-2538.1,5300.4-2653z M5297.9-3546.6c132.8-153.2,17.9-395.7-183.8-395.7c-130.2,0-242.6,112.4-242.6,242.6c0,68.9,20.4,112.3,76.6,171.1c71.5,68.9,91.9,76.6,186.4,63.8C5205.9-3475.1,5259.6-3500.7,5297.9-3546.6z"/>
<path d="M4258.7,908.7V242.3l148.1,81.7c79.2,46,270.7,155.8,423.8,245.1c153.2,89.4,280.9,160.8,283.4,160.8c2.5,0,194-109.8,423.8-242.6l418.7-240l7.6,329.4c2.6,183.8,2.6,480,0,663.8l-7.6,329.4l-418.7-240c-229.8-132.8-423.8-242.6-426.4-242.6c-5.1,0-176.2,99.6-385.6,219.6c-206.8,120-398.3,229.8-421.3,242.5C4261.3,1572.5,4258.7,1534.2,4258.7,908.7z M4700.4,972.5c51.1-25.5,94.5-53.6,94.5-61.3c0-15.3-191.5-130.2-214.5-130.2c-10.2,0-15.3,58.7-15.3,130.2c0,71.5,7.7,125.1,20.4,120C4595.7,1026.2,4646.8,1000.6,4700.4,972.5z M5663,908.7c0-68.9-5.1-127.7-15.3-127.7c-23,0-214.5,114.9-214.5,127.7c0,12.8,178.7,120,211.9,125.1C5655.3,1036.4,5663,980.2,5663,908.7z"/>
</g>
</g>
</svg>